<svg id="Layer_1" data-name="Layer 1" xmlns="http://www.w3.org/2000/svg" viewBox="0 0 700.12 973.5"><defs><style>.cls-1{fill:#868d93;}.cls-2,.cls-6{fill:#fff;}.cls-2{opacity:0.15;}.cls-3{fill:#f9d4b9;}.cls-4,.cls-7{fill:#333;}.cls-5{fill:#ef489c;}.cls-7{stroke:#000;}.cls-10,.cls-7,.cls-9{stroke-miterlimit:10;}.cls-8{fill:#f4d72f;}.cls-9{fill:#e0c22d;stroke:#e2bd1e;}.cls-10,.cls-9{stroke-width:3px;}.cls-10{fill:#daf2f1;stroke:#d1b22f;}.cls-11{fill:#aaa;}.cls-12{fill:#dbbc3a;}.cls-13{fill:none;stroke:#fff;stroke-linecap:round;stroke-linejoin:round;stroke-width:2px;}</style></defs><title>saltmine_logo</title><path class="cls-1" d="M805.77,465.29l.68,1.1s61-24.11,55.56-135.89c0,0-14-24.06-71.9-3l-.67.27c-56.64-129.33-267.17-93-277.54-91.09-10.36-1.88-220.6-38.19-277.41,90.82h0c-57.91-21-71.9,3-71.9,3-5.41,111.78,55.56,135.89,55.56,135.89h0c4.13,41.22,16.54,92.73,47.21,147.17,0,0,14.42,16.23,1.8,23.44s-95.56,106.37-50.48,220c0,0,16.23,52.29,45.07,57.69V939.9c0,25.24-1.8,45.07,16.23,46.88s122.32,19.78,233.94.08c111.62,19.71,215.93,1.72,233.94-.08s16.23-21.64,16.23-46.88V914.65c28.85-5.41,45.07-57.69,45.07-57.69,45.07-113.59-37.86-212.75-50.48-220s1.8-23.44,1.8-23.44C789.41,558.63,801.75,506.7,805.77,465.29Z" transform="translate(-162.23 -22.5)"/><path class="cls-2" d="M862,330.5s-14-24.06-71.9-3l-.67.27c-22-50.16-67.08-75.39-114.69-87.38-90.49,17.59-158.8,97.26-158.8,192.89,0,108.54,88,196.52,196.52,196.52a197.41,197.41,0,0,0,39.33-3.94c1.36-6.31,6.66-12.29,6.66-12.29,30.95-54.93,43.29-106.87,47.31-148.27l.68,1.1S867.42,442.28,862,330.5Z" transform="translate(-162.23 -22.5)"/><path class="cls-2" d="M162.91,330.5s14-24.06,71.9-3l.67.27c22-50.16,67.08-75.39,114.69-87.38C440.66,258,509,337.64,509,433.27c0,108.54-88,196.52-196.52,196.52a197.41,197.41,0,0,1-39.33-3.94c-1.36-6.31-6.66-12.29-6.66-12.29-30.95-54.93-43.29-106.87-47.31-148.27l-.68,1.1S157.5,442.28,162.91,330.5Z" transform="translate(-162.23 -22.5)"/><path class="cls-3" d="M412,426.43c1.88-101.65,101.07-91,102.2-90.87,1.13-.12,100.32-10.77,102.2,90.87,1.89,102.19-49.19,149.52-102.17,151.44h-.05C461.15,575.95,410.07,528.62,412,426.43Z" transform="translate(-162.23 -22.5)"/><ellipse class="cls-4" cx="143.67" cy="408.06" rx="35.16" ry="45.98"/><ellipse class="cls-4" cx="556.55" cy="408.06" rx="35.16" ry="45.98"/><path class="cls-5" d="M562.43,379.18c-5.2-24.28-42.88-19.83-46.68-19.86-3.41,0-41.48-4.42-46.68,19.86-5.15,24,41.89,31.7,46.48,32.4v.06l.2,0,.2,0v-.06C520.54,410.88,567.58,403.19,562.43,379.18Z" transform="translate(-162.23 -22.5)"/><path class="cls-6" d="M546.6,472.93c0,32.86-14.13,59.5-31.55,59.5s-31.55-26.64-31.55-59.5Z" transform="translate(-162.23 -22.5)"/><ellipse class="cls-4" cx="432.11" cy="393.6" rx="7.21" ry="4.51" transform="translate(-236.88 662.37) rotate(-72.22)"/><ellipse class="cls-4" cx="277.09" cy="408.97" rx="4.51" ry="7.21"/><ellipse class="cls-4" cx="259.06" cy="406.26" rx="4.51" ry="6.31"/><ellipse class="cls-4" cx="596.18" cy="393.6" rx="4.51" ry="7.21" transform="translate(-253.95 178.37) rotate(-17.78)"/><ellipse class="cls-4" cx="426.74" cy="408.97" rx="4.51" ry="7.21"/><ellipse class="cls-4" cx="444.77" cy="406.26" rx="4.51" ry="6.31"/><line class="cls-7" x1="353.72" y1="509.93" x2="353.72" y2="399.95"/><path class="cls-8" d="M792.36,274.61S740.25,73.44,515.95,72.7v0h-1.24v0c-224.31.75-276.41,201.91-276.41,201.91-72.12,36.06-50.48,79.33-50.48,79.33s1.8,19.83,77.53-7.21c73.14-26.12,238-45.07,250-43.21,11.44-1.86,176.85,17.09,250,43.21,75.72,27,77.53,7.21,77.53,7.21S864.48,310.67,792.36,274.61Z" transform="translate(-162.23 -22.5)"/><circle class="cls-9" cx="352.82" cy="112.38" r="110.88"/><circle class="cls-10" cx="352.82" cy="112.38" r="66.53"/><path class="cls-3" d="M261.73,940.76a45.34,45.34,0,0,0,11.72,5.45l41.47-55.89-41.38-56.88s-50.09,4-43.12,53.86h0c7.57,12.6,18.11,24.88,31.31,27.36V939.9C261.73,940.18,261.73,940.47,261.73,940.76Z" transform="translate(-162.23 -22.5)"/><path class="cls-3" d="M762.53,940.76a45.34,45.34,0,0,1-11.72,5.45l-41.47-55.89,41.38-56.88s50.09,4,43.12,53.86h0c-7.57,12.6-18.11,24.88-31.31,27.36V939.9C762.53,940.18,762.53,940.47,762.53,940.76Z" transform="translate(-162.23 -22.5)"/><path class="cls-8" d="M758.94,902.76c-9-15.51-10.82-151.61-10.82-151.61-36.06-53.41-28.85-70.56-23.44-98.12s-43.27-20.67-43.27-20.67c-10.82,1.72-48.68,58.5-48.68,58.5-8.7-1.66-113.21-1.72-120.4-1.72h-.4c-7.18,0-111.69.06-120.4,1.72,0,0-37.86-56.77-48.68-58.5,0,0-48.68-6.89-43.27,20.67s12.62,44.71-23.44,98.12c0,0-1.8,136.1-10.82,151.61-3.05,5.25-4,17.22-4,30.76.25,2.52.4,5.44.4,8.87,0,2,0,4,0,5.94.43,9.55,1.15,19,1.84,26.64,2,6.95,6.09,11.42,14.41,12.22,18,1.72,122.32,18.9,233.94.07,111.62,18.83,215.93,1.65,233.94-.07,9.58-.92,13.56-6.7,15.19-15.53.38-4.44.75-9.34,1.07-14.43.05-4.62,0-9.61,0-14.83a77.63,77.63,0,0,1,.87-12.5C762.78,917.87,761.72,907.54,758.94,902.76Z" transform="translate(-162.23 -22.5)"/><path class="cls-3" d="M500.57,988.72l-2.66-1.95c-126.21-92-200.13,0-200.13,0l-.8,2.4C334.18,993.84,414.37,1002.09,500.57,988.72Z" transform="translate(-162.23 -22.5)"/><path class="cls-3" d="M529.57,988.72l2.66-1.95c126.21-92,200.13,0,200.13,0l.8,2.4C696,993.84,615.77,1002.09,529.57,988.72Z" transform="translate(-162.23 -22.5)"/><ellipse class="cls-11" cx="209.48" cy="727.19" rx="27.04" ry="24.34"/><ellipse class="cls-11" cx="494.35" cy="727.19" rx="27.04" ry="24.34"/><polygon class="cls-12" points="351.91 742.51 256.36 755.13 256.36 863.31 351.91 910.18 447.47 863.31 447.47 755.13 351.91 742.51"/><path class="cls-13" d="M292,400.07c-7.48,6.61-12.4,17.8-12.4,30.5" transform="translate(-162.23 -22.5)"/><path class="cls-13" d="M704.85,400.07c-7.48,6.61-12.4,17.8-12.4,30.5" transform="translate(-162.23 -22.5)"/></svg>